<svg width="50" height="50" viewBox="0 0 50 50" fill="none" xmlns="http://www.w3.org/2000/svg">
<rect width="50" height="50" rx="25" fill="#F2E5DA"/>
<path d="M19.9551 31.6007C18.9091 32.0754 17.793 32.3775 16.6504 32.4952C16.5749 32.5031 16.4988 32.4888 16.4314 32.4541C16.3639 32.4194 16.308 32.3658 16.2705 32.2999C15.4238 30.8077 15.1455 28.9513 15.4893 26.9142C15.9277 24.2853 17.3535 21.6534 19.5049 19.5021C21.6563 17.3507 24.29 15.9249 26.917 15.4864C29.1426 15.1163 31.1523 15.4864 32.707 16.5216C32.7707 16.5634 32.8207 16.6228 32.851 16.6927C32.8813 16.7625 32.8905 16.8396 32.8775 16.9146C32.8645 16.9896 32.83 17.0592 32.778 17.1148C32.726 17.1704 32.6589 17.2096 32.585 17.2276C31.8531 17.4021 31.1396 17.646 30.4541 17.9562C28.3281 18.923 25.6104 20.9894 24.7393 25.3487C24.1426 28.3058 22.5342 30.4093 19.9551 31.6007ZM34.7295 18.7013C34.692 18.6355 34.6363 18.582 34.569 18.5474C34.5018 18.5127 34.4259 18.4983 34.3506 18.506C33.2075 18.6229 32.091 18.925 31.0449 19.4005C28.4658 20.5919 26.8574 22.6954 26.2656 25.6505C25.3936 30.0099 22.6768 32.0763 20.5508 33.0431C19.8653 33.3532 19.1518 33.5971 18.4199 33.7716C18.3443 33.7886 18.2755 33.8278 18.2222 33.8841C18.1689 33.9404 18.1336 34.0113 18.1207 34.0877C18.1078 34.1642 18.118 34.2427 18.1499 34.3134C18.1818 34.384 18.234 34.4436 18.2998 34.4845C19.459 35.2579 20.8701 35.6563 22.4355 35.6563C22.9892 35.6547 23.5419 35.6077 24.0879 35.5157C26.7158 35.0772 29.3486 33.6515 31.5 31.5001C33.6514 29.3487 35.0771 26.7149 35.5156 24.088C35.8516 22.0509 35.5762 20.1935 34.7295 18.7013Z" fill="#9E624C"/>
</svg>
