<svg width="128" height="40" viewBox="0 0 128 40" fill="none" xmlns="http://www.w3.org/2000/svg">
<rect width="128" height="40" rx="20" fill="white" fill-opacity="0.2"/>
<path d="M21 30H27C32 30 34 28 34 23V17C34 12 32 10 27 10H21C16 10 14 12 14 17V23C14 28 16 30 21 30Z" stroke="white" stroke-width="2" stroke-linecap="round" stroke-linejoin="round"/>
<path d="M24 23.5C25.933 23.5 27.5 21.933 27.5 20C27.5 18.067 25.933 16.5 24 16.5C22.067 16.5 20.5 18.067 20.5 20C20.5 21.933 22.067 23.5 24 23.5Z" stroke="white" stroke-width="2" stroke-linecap="round" stroke-linejoin="round"/>
<path d="M29.6361 15H29.6477" stroke="white" stroke-width="2" stroke-linecap="round" stroke-linejoin="round"/>
<path d="M51.1562 23.8125V25.5H45.1094V23.8125H51.1562ZM45.7656 14.125V25.5H43.6172V14.125H45.7656ZM50.3672 18.8203V20.4688H45.1094V18.8203H50.3672ZM51.1328 14.125V15.8203H45.1094V14.125H51.1328ZM54.5547 18.7734V25.5H52.4922V17.0469H54.4453L54.5547 18.7734ZM57.125 16.9922L57.0938 18.9141C56.9792 18.8932 56.849 18.8776 56.7031 18.8672C56.5625 18.8568 56.4297 18.8516 56.3047 18.8516C55.987 18.8516 55.7083 18.8958 55.4688 18.9844C55.2292 19.0677 55.0286 19.1901 54.8672 19.3516C54.7109 19.513 54.5911 19.7109 54.5078 19.9453C54.4245 20.1745 54.3776 20.4349 54.3672 20.7266L53.9219 20.6719C53.9219 20.1354 53.9766 19.638 54.0859 19.1797C54.1953 18.7214 54.3542 18.3203 54.5625 17.9766C54.7708 17.6328 55.0312 17.3672 55.3438 17.1797C55.6615 16.987 56.026 16.8906 56.4375 16.8906C56.5521 16.8906 56.6745 16.901 56.8047 16.9219C56.9401 16.9375 57.0469 16.9609 57.125 16.9922ZM60.4453 17.0469V25.5H58.375V17.0469H60.4453ZM58.2344 14.8359C58.2344 14.5286 58.3385 14.2734 58.5469 14.0703C58.7604 13.8672 59.0469 13.7656 59.4062 13.7656C59.7656 13.7656 60.0495 13.8672 60.2578 14.0703C60.4714 14.2734 60.5781 14.5286 60.5781 14.8359C60.5781 15.138 60.4714 15.3906 60.2578 15.5938C60.0495 15.7969 59.7656 15.8984 59.4062 15.8984C59.0469 15.8984 58.7604 15.7969 58.5469 15.5938C58.3385 15.3906 58.2344 15.138 58.2344 14.8359ZM65.8828 24.0312C66.1745 24.0312 66.4349 23.974 66.6641 23.8594C66.8932 23.7448 67.0755 23.5833 67.2109 23.375C67.3516 23.1667 67.4271 22.9245 67.4375 22.6484H69.3828C69.3724 23.2214 69.2109 23.7344 68.8984 24.1875C68.5859 24.6406 68.1693 25 67.6484 25.2656C67.1328 25.526 66.5547 25.6562 65.9141 25.6562C65.263 25.6562 64.6953 25.5469 64.2109 25.3281C63.7266 25.1094 63.3229 24.8047 63 24.4141C62.6823 24.0234 62.4427 23.5703 62.2812 23.0547C62.125 22.5391 62.0469 21.987 62.0469 21.3984V21.1484C62.0469 20.5599 62.125 20.0078 62.2812 19.4922C62.4427 18.9766 62.6823 18.5234 63 18.1328C63.3229 17.7422 63.7266 17.4375 64.2109 17.2188C64.6953 17 65.2604 16.8906 65.9062 16.8906C66.5885 16.8906 67.1875 17.0234 67.7031 17.2891C68.224 17.5547 68.6302 17.9297 68.9219 18.4141C69.2188 18.8984 69.3724 19.4688 69.3828 20.125H67.4375C67.4271 19.8229 67.3594 19.5521 67.2344 19.3125C67.1094 19.0729 66.9323 18.8802 66.7031 18.7344C66.474 18.5885 66.1953 18.5156 65.8672 18.5156C65.5182 18.5156 65.2266 18.5885 64.9922 18.7344C64.763 18.8802 64.5833 19.0807 64.4531 19.3359C64.3281 19.5859 64.2396 19.8672 64.1875 20.1797C64.1406 20.487 64.1172 20.8099 64.1172 21.1484V21.3984C64.1172 21.7422 64.1406 22.0703 64.1875 22.3828C64.2396 22.6953 64.3281 22.9766 64.4531 23.2266C64.5833 23.4714 64.763 23.6667 64.9922 23.8125C65.2266 23.9583 65.5234 24.0312 65.8828 24.0312ZM72.8203 13.4922V25.5H70.7578V13.4922H72.8203ZM78.1172 17.0469L74.4375 21.1797L72.4453 23.2031L71.7891 21.6016L73.3281 19.6641L75.625 17.0469H78.1172ZM76.0078 25.5L73.3906 21.5625L74.7656 20.2266L78.3984 25.5H76.0078ZM79.2969 24.4922C79.2969 24.1797 79.4036 23.9167 79.6172 23.7031C79.8307 23.4896 80.1198 23.3828 80.4844 23.3828C80.849 23.3828 81.138 23.4896 81.3516 23.7031C81.5651 23.9167 81.6719 24.1797 81.6719 24.4922C81.6719 24.7995 81.5651 25.0599 81.3516 25.2734C81.138 25.4818 80.849 25.5859 80.4844 25.5859C80.1198 25.5859 79.8307 25.4818 79.6172 25.2734C79.4036 25.0599 79.2969 24.7995 79.2969 24.4922ZM90.5703 21.7578H92.7188C92.6615 22.5182 92.4505 23.1927 92.0859 23.7812C91.7214 24.3646 91.2135 24.8229 90.5625 25.1562C89.9115 25.4896 89.1224 25.6562 88.1953 25.6562C87.4818 25.6562 86.8385 25.5312 86.2656 25.2812C85.6979 25.026 85.2109 24.6641 84.8047 24.1953C84.4036 23.7214 84.0964 23.1536 83.8828 22.4922C83.6693 21.8255 83.5625 21.0781 83.5625 20.25V19.3828C83.5625 18.5547 83.6719 17.8073 83.8906 17.1406C84.1094 16.474 84.4219 15.9062 84.8281 15.4375C85.2396 14.9635 85.7318 14.599 86.3047 14.3438C86.8828 14.0885 87.5286 13.9609 88.2422 13.9609C89.1693 13.9609 89.9531 14.1328 90.5938 14.4766C91.2344 14.8151 91.7318 15.2812 92.0859 15.875C92.4401 16.4688 92.6536 17.151 92.7266 17.9219H90.5781C90.5365 17.4427 90.4323 17.0365 90.2656 16.7031C90.1042 16.3698 89.8594 16.1172 89.5312 15.9453C89.2083 15.7682 88.7786 15.6797 88.2422 15.6797C87.8255 15.6797 87.4583 15.7578 87.1406 15.9141C86.8281 16.0703 86.5677 16.3047 86.3594 16.6172C86.151 16.9245 85.9948 17.3099 85.8906 17.7734C85.7865 18.2318 85.7344 18.763 85.7344 19.3672V20.25C85.7344 20.8281 85.7812 21.3464 85.875 21.8047C85.9688 22.263 86.1146 22.651 86.3125 22.9688C86.5104 23.2865 86.7656 23.5286 87.0781 23.6953C87.3906 23.862 87.763 23.9453 88.1953 23.9453C88.7214 23.9453 89.1484 23.862 89.4766 23.6953C89.8099 23.5286 90.0625 23.2839 90.2344 22.9609C90.4115 22.638 90.5234 22.237 90.5703 21.7578ZM98.8828 23.7031V19.8047C98.8828 19.5182 98.8333 19.2708 98.7344 19.0625C98.6354 18.8542 98.4844 18.6927 98.2812 18.5781C98.0781 18.4635 97.8203 18.4062 97.5078 18.4062C97.2318 18.4062 96.9896 18.4531 96.7812 18.5469C96.5781 18.6406 96.4219 18.7734 96.3125 18.9453C96.2031 19.112 96.1484 19.3047 96.1484 19.5234H94.0781C94.0781 19.1745 94.1615 18.8438 94.3281 18.5312C94.4948 18.2135 94.7318 17.9323 95.0391 17.6875C95.3516 17.4375 95.724 17.2422 96.1562 17.1016C96.5938 16.9609 97.0833 16.8906 97.625 16.8906C98.2656 16.8906 98.8359 17 99.3359 17.2188C99.8411 17.4323 100.237 17.7552 100.523 18.1875C100.815 18.6198 100.961 19.1641 100.961 19.8203V23.5078C100.961 23.9297 100.987 24.2917 101.039 24.5938C101.096 24.8906 101.18 25.1484 101.289 25.3672V25.5H99.1875C99.0885 25.2865 99.013 25.0156 98.9609 24.6875C98.9089 24.3542 98.8828 24.026 98.8828 23.7031ZM99.1719 20.3516L99.1875 21.5781H97.8828C97.5599 21.5781 97.276 21.612 97.0312 21.6797C96.7865 21.7422 96.5859 21.8359 96.4297 21.9609C96.2734 22.0807 96.1562 22.2266 96.0781 22.3984C96 22.5651 95.9609 22.7552 95.9609 22.9688C95.9609 23.1771 96.0078 23.3646 96.1016 23.5312C96.2005 23.6979 96.3411 23.8307 96.5234 23.9297C96.7109 24.0234 96.9297 24.0703 97.1797 24.0703C97.5443 24.0703 97.862 23.9974 98.1328 23.8516C98.4036 23.7005 98.6146 23.5182 98.7656 23.3047C98.9167 23.0911 98.9974 22.888 99.0078 22.6953L99.6016 23.5859C99.5286 23.7995 99.4193 24.026 99.2734 24.2656C99.1276 24.5052 98.9401 24.7292 98.7109 24.9375C98.4818 25.1458 98.2057 25.3177 97.8828 25.4531C97.5599 25.5885 97.1849 25.6562 96.7578 25.6562C96.2109 25.6562 95.7214 25.5469 95.2891 25.3281C94.8568 25.1094 94.5156 24.8099 94.2656 24.4297C94.0156 24.0495 93.8906 23.6172 93.8906 23.1328C93.8906 22.6849 93.974 22.2891 94.1406 21.9453C94.3073 21.6016 94.5547 21.3125 94.8828 21.0781C95.2109 20.8385 95.6172 20.6589 96.1016 20.5391C96.5911 20.4141 97.151 20.3516 97.7812 20.3516H99.1719ZM105.523 25.5H103.445V16.2656C103.445 15.6302 103.568 15.0964 103.812 14.6641C104.057 14.2266 104.406 13.8958 104.859 13.6719C105.312 13.4479 105.846 13.3359 106.461 13.3359C106.664 13.3359 106.857 13.349 107.039 13.375C107.227 13.401 107.411 13.4375 107.594 13.4844L107.555 15.0547C107.456 15.0286 107.346 15.0104 107.227 15C107.112 14.9896 106.984 14.9844 106.844 14.9844C106.562 14.9844 106.323 15.0339 106.125 15.1328C105.927 15.2318 105.776 15.3776 105.672 15.5703C105.573 15.7578 105.523 15.9896 105.523 16.2656V25.5ZM107.234 17.0469V18.5312H102.172V17.0469H107.234ZM112.117 25.6562C111.477 25.6562 110.901 25.5521 110.391 25.3438C109.88 25.1354 109.445 24.8464 109.086 24.4766C108.732 24.1016 108.458 23.6667 108.266 23.1719C108.078 22.6719 107.984 22.1354 107.984 21.5625V21.25C107.984 20.599 108.078 20.0078 108.266 19.4766C108.453 18.9401 108.719 18.4792 109.062 18.0938C109.406 17.7083 109.818 17.4115 110.297 17.2031C110.776 16.9948 111.305 16.8906 111.883 16.8906C112.482 16.8906 113.01 16.9922 113.469 17.1953C113.927 17.3932 114.31 17.6745 114.617 18.0391C114.924 18.4036 115.156 18.8411 115.312 19.3516C115.469 19.8568 115.547 20.4167 115.547 21.0312V21.8984H108.922V20.4766H113.516V20.3203C113.505 19.9922 113.443 19.6927 113.328 19.4219C113.214 19.1458 113.036 18.9271 112.797 18.7656C112.557 18.599 112.247 18.5156 111.867 18.5156C111.56 18.5156 111.292 18.5833 111.062 18.7188C110.839 18.849 110.651 19.0365 110.5 19.2812C110.354 19.5208 110.245 19.8073 110.172 20.1406C110.099 20.474 110.062 20.8438 110.062 21.25V21.5625C110.062 21.9167 110.109 22.2448 110.203 22.5469C110.302 22.849 110.445 23.112 110.633 23.3359C110.826 23.5547 111.055 23.7266 111.32 23.8516C111.591 23.9714 111.898 24.0312 112.242 24.0312C112.674 24.0312 113.065 23.9479 113.414 23.7812C113.768 23.6094 114.076 23.3568 114.336 23.0234L115.375 24.1016C115.198 24.362 114.958 24.612 114.656 24.8516C114.359 25.0911 114 25.2865 113.578 25.4375C113.156 25.5833 112.669 25.6562 112.117 25.6562Z" fill="white"/>
</svg>
