<svg width="264" height="415" viewBox="0 0 264 415" fill="none" xmlns="http://www.w3.org/2000/svg">
<g opacity="0.05" clip-path="url(#clip0_1_1323)">
<mask id="mask0_1_1323" style="mask-type:luminance" maskUnits="userSpaceOnUse" x="-242" y="46" width="412" height="513">
<path d="M169.591 479.239L53.5889 46.3133L-241.404 125.356L-125.402 558.282L169.591 479.239Z" fill="white"/>
</mask>
<g mask="url(#mask0_1_1323)">
<path fill-rule="evenodd" clip-rule="evenodd" d="M49.2119 82.7525C43.573 85.4613 39.3325 88.6653 35.9781 92.2412C34.198 94.1505 32.6831 96.1554 31.3868 98.3153C28.811 102.62 27.2111 107.476 26.0356 112.828C24.4672 119.998 23.6994 128.037 22.8772 136.903C22.739 138.196 22.6203 139.483 22.5198 140.76C23.1682 143.18 23.8077 145.644 24.4552 148.158C24.5008 148.328 24.4038 148.51 24.2253 148.563C24.0663 148.611 23.8694 148.518 23.8226 148.343C23.2954 146.823 22.7686 145.323 22.2749 143.83C20.9925 160.893 21.1662 177.383 22.169 193.683C22.2102 192.651 22.2501 191.614 22.3377 190.58C22.6923 186.344 23.3771 182.077 24.3099 177.822C25.6273 171.912 27.4639 166.034 29.5781 160.259C31.1024 156.132 32.7682 152.066 34.5857 148.1C36.8573 143.126 39.3038 138.32 41.8452 133.712C41.2568 133.052 40.7456 132.329 40.3434 131.567C39.2674 129.553 39.0087 127.305 39.9263 125.267C40.6529 123.703 41.5548 122.617 42.6502 121.787C43.3009 121.3 43.9985 120.91 44.7616 120.571C45.2652 120.253 45.8272 119.999 46.4815 119.797C46.8178 119.691 47.1411 119.615 47.4454 119.565C47.779 119.45 48.091 119.35 48.4143 119.274C49.0331 119.134 49.6638 119.116 50.1549 119.219C54.0293 119.936 56.1683 123.545 56.2685 127.107C56.3145 128.465 56.0368 129.8 55.473 130.961C54.5995 134.893 51.4116 137.924 46.854 136.932C46.0426 136.722 45.1574 136.335 44.332 135.8C42.1842 140.517 40.0719 145.385 38.1179 150.377C35.7907 156.329 33.6455 162.435 31.8831 168.59C30.2856 174.096 28.9914 179.646 28.0296 185.154C27.374 188.908 26.8155 192.635 26.5617 196.334C26.4814 197.22 26.4047 198.1 26.3438 198.981C27.1371 197.023 27.991 195.117 28.9529 193.245C30.0477 191.15 31.267 189.13 32.5652 187.152C35.1203 183.217 37.9641 179.466 41.0732 175.966C43.1523 173.617 45.3604 171.4 47.5713 169.272C49.7324 167.229 51.9597 165.356 54.2722 163.606C56.5797 161.858 58.9711 160.227 61.4513 158.657C62.0726 158.235 62.697 157.844 63.3353 157.485C63.9931 157.121 64.6599 156.792 65.3359 156.496C65.6436 156.361 66.0959 155.969 66.3563 155.853C66.8434 155.649 67.1153 155.847 67.4781 156.307C67.9545 156.258 67.4218 156.369 67.9038 156.438C68.0811 156.458 67.9796 156.449 68.088 156.581C68.3547 156.838 68.1781 157.365 68.0912 157.857C67.848 159.146 66.8511 160.965 66.5415 161.715L61.2269 173.467C58.2554 179.93 55.3173 186.342 51.5784 192.235C50.3098 194.226 48.9179 196.146 47.4728 198.022C46.0226 199.88 44.5327 201.706 42.802 203.43C38.6703 207.662 32.9521 210.445 28.2638 214.232C27.6797 214.696 27.155 215.206 26.5952 215.664C26.4605 215.783 26.298 215.915 26.139 216.041C26.4797 226.137 27.3847 236.26 27.7158 246.223C29.4956 259.241 31.4403 272.408 33.3234 285.909C36.1741 306.364 35.8073 326.921 32.7839 347.127C34.9641 341.074 37.0647 335.074 39.0379 329.337C42.8091 318.764 46.3727 308.038 49.3872 297.167C50.1861 294.24 50.9361 291.304 51.6834 288.359C53.2729 282.084 54.0336 275.651 55.6209 269.387C52.4216 267.458 51.8735 263.313 53.2096 259.747C54.757 255.686 58.5299 252.759 62.5258 254.745C65.878 256.331 66.9366 260.282 66.0957 263.617C65.8652 264.564 65.4919 265.445 64.9886 266.211C64.4251 267.393 63.4846 268.431 62.3425 269.164C61.134 269.941 59.7017 270.33 58.2857 270.236C57.5201 277.389 56.3276 284.485 54.7753 291.52C51.8376 304.855 47.6595 317.933 43.3621 330.819C41.9902 334.718 40.6854 338.771 39.2985 342.866L39.6038 342.373C41.0674 340.002 42.5261 337.631 44.0192 335.273C45.128 333.502 46.2637 331.734 47.4328 329.994C48.2354 328.81 49.0419 327.641 49.8598 326.494C50.3739 325.789 50.8955 325.092 51.3941 324.406C52.3657 323.115 53.3169 321.844 54.3198 320.591C55.1815 319.511 56.0448 318.457 56.9328 317.417C58.7545 315.293 60.6637 313.224 62.6375 311.221C64.9939 308.819 67.469 306.51 70.0868 304.345C73.0174 301.909 76.0976 299.662 79.3742 297.7C79.6485 297.538 79.9228 297.376 80.1971 297.214C80.3422 297.134 80.4679 297.058 80.6178 296.976C81.1075 296.705 81.5998 296.442 82.0872 296.182C83.1116 295.631 84.1593 295.09 85.198 294.593C85.8033 294.306 86.3944 294.043 87.0089 293.79C87.5106 293.583 88.0199 293.384 88.533 293.199C88.7513 293.12 89.0001 293.038 89.2259 292.967C89.3788 292.915 89.5378 292.868 89.6956 292.815C89.9868 292.716 90.2767 292.612 90.5887 292.513C91.016 292.378 91.4446 292.247 91.881 292.146C92.2507 292.068 92.6242 292.004 93.0087 292.078C93.1409 292.105 93.2466 292.15 93.3637 292.217C93.4214 292.238 93.4487 292.262 93.4834 292.295C93.486 292.304 93.4886 292.314 93.5106 292.319C93.5119 292.324 93.5132 292.328 93.5145 292.333C93.5158 292.338 93.5158 292.338 93.5401 292.332C93.5414 292.336 93.567 292.335 93.5878 292.334C93.6685 292.344 93.7456 292.36 93.782 292.418C93.8501 292.478 93.848 292.567 93.8688 292.645C93.9013 292.766 93.9326 292.883 93.9868 292.988C94.0064 293.061 94.0246 293.129 94.0428 293.197C94.0559 293.245 94.0896 293.294 94.1026 293.342C94.0949 293.391 94.1066 293.435 94.0928 293.48C94.0776 293.521 94.0867 293.555 94.0777 293.599C94.0274 293.878 93.9318 294.143 93.8275 294.395C93.6455 294.824 93.4169 295.234 93.1614 295.641C92.8538 296.146 92.5251 296.63 92.1903 297.11C92.0664 297.289 91.9424 297.468 91.7978 297.647C91.7467 297.729 91.6881 297.802 91.637 297.883C88.4708 302.706 85.2741 307.531 82.1065 312.349C82.0528 312.42 82.0185 312.487 81.9648 312.558C81.8817 312.695 81.7937 312.833 81.7106 312.97C81.4858 313.317 81.2866 313.662 81.0618 314.009C80.3518 315.189 79.6507 316.382 78.9446 317.576C75.0644 324.204 71.4221 330.983 67.188 337.398C66.4149 338.595 65.5906 339.795 64.7585 340.966C63.5954 342.554 62.4254 344.097 61.1756 345.614C58.683 348.693 55.9585 351.626 52.9205 354.206C52.4837 354.578 52.0431 354.936 51.6025 355.294C51.4001 355.452 51.1978 355.61 50.9941 355.764C48.9902 357.285 46.8163 358.56 44.5657 359.705C43.836 360.073 43.1037 360.43 42.3639 360.78C41.9328 360.978 41.5211 361.172 41.0852 361.372C40.4131 361.682 39.7579 362.056 39.108 362.449C38.2094 363.002 37.2969 363.601 36.3674 364.136C35.3136 364.752 34.216 365.301 33.0185 365.575C32.6758 365.657 32.3508 365.707 32.0157 365.74C31.9195 365.75 31.8268 365.754 31.7293 365.759C31.6768 365.758 31.6097 365.76 31.5303 365.755C31.4814 365.748 31.4298 365.73 31.3708 365.704C31.3127 365.663 31.2715 365.606 31.2147 365.569C31.1541 365.518 31.0912 365.477 31.0127 365.456C30.8853 365.428 30.7813 365.409 30.6785 365.395C30.5819 365.384 30.4831 365.385 30.383 365.38C30.3353 365.378 30.2828 365.376 30.2096 365.375C30.1888 365.375 30.1862 365.365 30.1606 365.367C30.1606 365.367 30.1376 365.378 30.1389 365.383C30.1195 365.389 30.0965 365.4 30.0722 365.406C30.0055 365.43 29.9361 365.443 29.8885 365.44L29.8642 365.447C29.558 366.034 29.2311 366.621 28.8993 367.21C25.9655 379.471 22.129 391.53 17.4337 403.32C9.66997 422.843 -0.331819 441.575 -11.9827 459.051C-12.2876 459.643 -12.635 460.174 -13.0058 460.695C-13.1002 460.887 -13.2306 461.042 -13.396 461.144C-21.3571 472.855 -30.0529 483.982 -39.2856 494.388C-37.9098 493.692 -36.5388 492.996 -35.1348 492.307L-34.8532 491.998C-33.9062 490.983 -32.801 490.015 -31.8092 488.974C-31.4124 488.55 -31.0208 488.106 -30.7051 487.652L-27.2432 482.63C-24.8923 479.761 -22.4763 476.764 -19.9841 473.878C-18.3145 471.925 -16.5808 470.018 -14.7862 468.24C-12.9775 466.438 -11.0868 464.864 -9.11755 463.388C-6.21324 461.203 -3.15114 459.258 -0.0548634 457.168C1.64192 456.036 3.24593 454.83 4.94271 453.699C5.68359 453.198 6.46014 452.714 7.25776 452.25L15.2634 448.266C16.1942 447.736 17.1054 447.132 17.9845 446.506C19.3554 445.519 20.7276 444.458 22.0985 443.471C24.4192 441.849 26.7789 440.373 28.9773 438.665C29.9111 437.951 30.7885 437.221 31.6168 436.405C32.6756 435.361 33.7071 434.293 34.8314 433.299C35.5974 432.62 36.3786 431.978 37.2257 431.407L39.7942 429.719C40.0594 429.523 40.5698 428.959 40.7188 428.893C41.1175 428.729 41.3902 428.833 41.5952 428.976C41.7496 429.086 42.0577 429.342 41.9171 429.906C41.6706 431.065 41.2662 432.2 40.8592 433.325C39.9345 435.88 38.7501 438.379 37.6771 440.828C36.4118 443.746 34.9832 446.597 33.3424 449.318C30.9031 453.394 27.9713 457.205 24.8353 460.78C20.452 465.725 15.5246 470.176 10.229 474.069C17.942 470.82 25.5811 467.393 33.0611 463.644C43.1865 458.571 53.0647 453.023 62.6538 446.688C60.5677 442.81 60.5688 438.09 64.6258 435.29C66.0864 434.19 68.601 433.292 70.9964 433.135C72.8383 433.011 74.611 433.349 75.8882 434.189C78.371 435.815 79.5965 439.028 79.6134 442.279C79.6049 442.792 79.5683 443.297 79.5083 443.792C79.5989 445.044 79.4148 446.359 78.9723 447.623C78.5233 448.863 77.9301 450.09 77.1114 451.038C76.3463 451.915 75.3258 452.48 74.0717 452.796C72.9575 453.011 71.8232 452.976 70.7275 452.697C70.4254 452.658 70.1389 452.599 69.8546 452.53C67.7112 451.995 65.6355 450.624 64.0962 448.786C51.9706 458.134 38.8374 465.627 25.4492 472.538C15.8092 477.516 5.93886 482.083 -4.19382 486.215C-10.8758 488.938 -17.6794 491.401 -24.5063 493.856C-29.9656 495.777 -34.9633 498.876 -40.3812 500.932C-41.8668 501.492 -43.3484 502.066 -44.8994 502.283C-45.5118 502.369 -46.0644 502.387 -46.6295 502.377C-46.7626 502.522 -46.9163 502.668 -47.0506 502.808C-60.7632 517.06 -74.6128 530.063 -90.3496 540.493C-100.828 547.437 -112.118 553.16 -124.564 557.677C-125.001 557.851 -125.527 557.638 -125.695 557.188C-125.862 556.738 -125.658 556.236 -125.191 556.053C-113.217 550.98 -102.516 544.597 -92.4662 537.415C-89.9085 535.589 -87.3574 533.738 -84.8977 531.819C-72.6815 522.342 -61.4644 511.43 -50.4498 499.588C-38.799 487.185 -27.9731 473.628 -18.2653 459.183L-17.0944 453.27C-16.6214 451.206 -16.575 449.105 -16.6583 446.986C-16.8133 443.569 -17.3729 440.12 -17.7124 436.774C-17.7546 436.15 -17.7787 435.515 -17.8258 434.893C-18.7124 428.396 -19.6493 421.886 -20.4459 415.376C-21.3572 407.776 -21.9588 400.166 -21.9205 392.572C-21.5927 377.604 -19.7622 362.509 -19.3962 347.489C-19.239 341.525 -19.4376 335.594 -19.8352 329.658C-19.8919 328.903 -19.9229 328.145 -19.9783 327.395C-20.3293 327.348 -20.6661 327.277 -21.0311 327.198C-22.6166 326.82 -24.1069 326.079 -25.249 324.927C-27.1576 322.974 -28.0125 320.25 -27.7262 317.684C-27.4377 315.029 -25.9771 312.549 -23.3751 311.258C-22.7506 310.945 -21.0241 310.565 -19.249 310.465C-18.0266 309.642 -16.7085 309.935 -15.4916 310.822C-14.8253 311.035 -14.264 311.322 -13.879 311.651C-12.0772 313.204 -10.6877 316.66 -10.7072 319.853C-10.7162 322.366 -11.6484 324.621 -13.3984 326.001C-13.9863 326.451 -14.6186 326.735 -15.2886 326.878C-15.6595 327.029 -16.0443 327.148 -16.4591 327.233C-16.6207 327.271 -16.7837 327.304 -16.925 327.321C-16.8425 327.726 -16.7565 328.125 -16.6983 328.537C-16.0311 332.29 -15.7462 336.094 -15.5271 339.905C-15.05 348.606 -15.2871 357.362 -15.6461 366.13C-15.0145 364.211 -14.2953 362.346 -13.4656 360.525C-12.3999 358.224 -11.1361 356.021 -9.72097 353.74C-9.31863 353.065 -8.4519 350.76 -7.17948 349.502C-6.33077 348.665 -5.49487 348.228 -4.73511 348.342C-4.64016 348.327 -4.31119 348.369 -4.07095 348.721C-3.8255 349.093 -3.35177 350.122 -3.28547 350.292L-0.491637 355.976C0.546786 358.219 1.41842 360.558 2.1336 362.955C3.21023 366.526 3.97751 370.206 4.60565 373.814C6.09356 382.826 6.64314 391.992 6.18253 401.1C5.84936 407.845 5.01545 414.569 3.51674 421.163C4.98435 418.088 6.41854 414.985 7.77428 411.861C8.71973 405.748 9.20838 399.466 11.094 393.674C12.3374 390.112 13.7831 386.605 15.4509 383.168C17.5243 378.816 19.8791 374.58 22.0748 370.315C28.0747 346.561 30.4844 322.082 28.3257 297.639C24.0757 295.423 19.4848 293.685 15.1435 291.478C13.0302 290.414 11.0027 289.223 9.09908 287.853C7.52402 286.718 6.01796 285.548 4.5656 284.307C1.17003 281.373 -1.89147 278.131 -4.77457 274.758C-8.43589 270.462 -11.8182 265.926 -15.067 261.265C-17.2015 258.217 -19.2345 255.1 -21.3538 252.012C-23.4939 248.846 -25.6659 245.735 -27.7995 242.593C-29.2471 240.476 -30.6704 238.352 -32.0143 236.155C-32.654 235.128 -34.0875 233.335 -34.8284 231.659C-35.3259 230.521 -35.5072 229.398 -35.3397 228.467C-35.1793 227.706 -34.7556 227.285 -34.3145 227.026C-33.9119 226.798 -33.4075 226.679 -32.7929 226.795C-32.2749 226.901 -31.3411 227.568 -30.7689 227.779L-28.4815 228.677C-25.9375 229.813 -23.4236 231.186 -20.9673 232.695C-18.5453 234.191 -16.2052 235.83 -13.9959 237.525C-8.80033 241.617 -4.03377 246.033 0.465088 250.713C2.72182 253.051 4.90147 255.451 7.04913 257.907C6.77234 257.34 6.49911 256.768 6.22718 256.2C0.651549 244.314 -3.9329 232.297 -7.71267 220.018C-10.1472 212.118 -12.2904 204.119 -14.1516 195.987C-15.9459 188.202 -17.5672 180.324 -18.9218 172.276C-19.1428 172.267 -19.3677 172.244 -19.6196 172.218C-23.7289 171.616 -25.9529 167.592 -25.7867 163.761C-25.7226 162.639 -25.4734 161.567 -25.0403 160.618C-24.1482 157.863 -21.8042 155.959 -17.8664 156.737C-14.5701 157.396 -12.5936 160.127 -12.0562 163.123C-11.6741 164.005 -11.4818 164.917 -11.494 165.785C-11.5199 167.225 -12.0763 168.608 -13.3301 169.663C-13.9309 170.511 -14.7172 171.212 -15.6931 171.671C-15.0902 173.921 -14.558 176.179 -13.959 178.415C-12.6304 183.548 -11.2697 188.627 -9.89474 193.68C-8.96156 197.066 -8.0553 200.448 -7.12604 203.819C-4.7703 212.261 -2.26366 220.605 0.562753 228.879C3.82655 238.416 7.58473 247.815 11.7769 257.26C13.5433 261.209 15.2715 265.209 17.209 269.174C17.769 270.253 18.3675 271.301 18.9802 272.325C19.3155 272.74 19.6472 273.162 19.9533 273.585C21.3847 275.467 22.7316 277.403 24.0387 279.365C24.8404 280.453 25.6691 281.543 26.4553 282.65C22.1645 253.263 17.5448 225.37 15.6367 196.964C14.567 181.037 14.3526 164.959 15.4466 148.379C15.2112 148.239 14.9793 148.093 14.7643 147.932C14.4036 147.674 14.0775 147.371 13.7515 147.067C11.2975 144.829 9.29794 141.818 7.33809 139.499C5.88108 137.619 4.45226 135.746 3.00958 133.919C0.761317 131.069 -1.5173 128.299 -3.36397 125.236C-5.39837 121.823 -6.9969 118.132 -8.00745 113.991C-8.34653 112.55 -8.62669 111.058 -8.85827 109.552C-9.08983 108.046 -9.25076 106.532 -9.38054 105.057L-9.51581 99.2646L-9.31846 96.2689L-8.92223 94.2877C-8.25776 92.219 -7.37682 91.7746 -6.66837 91.5223C-6.28743 91.389 -6.06033 91.3229 -5.59137 91.3431C-5.4692 91.352 -5.37512 91.431 -5.23765 91.4775C-4.3694 91.8022 -3.33327 92.6756 -2.20611 93.5194C-0.960038 94.6126 0.154219 95.7776 1.21703 97.0033C2.71768 98.794 4.05936 100.711 5.51898 102.601L7.78902 105.513C9.21307 107.465 10.531 109.565 11.722 111.736C11.9263 112.129 12.1257 112.523 12.3556 112.915C12.1712 112.324 12.0379 111.729 11.8985 111.131C11.1596 107.907 10.6994 104.635 10.4424 101.323C9.844 93.9 10.085 86.2468 11.8203 78.2608C12.021 77.28 12.2742 76.3007 12.5702 75.3255C11.9529 74.8294 11.3563 74.2549 10.8451 73.6106C9.07198 71.3669 8.11308 68.4103 8.51855 65.7443C8.65644 64.8011 8.86521 63.5003 9.38146 62.4141C9.59445 61.9455 9.84833 61.5129 10.158 61.1331C10.6531 60.24 11.347 59.1946 12.1048 58.4656C12.8616 57.7523 13.7248 57.3387 14.6016 57.2288C18.1574 56.7761 21.3953 58.7522 23.2899 61.5467C24.9827 63.588 25.7621 66.3219 25.5734 68.8829C25.4629 70.298 25.0491 71.6693 24.3145 72.8349C24.004 73.3087 23.6574 73.7453 23.2723 74.135C22.3186 75.8437 20.7774 77.0119 18.6881 77.2227C17.5643 77.3051 16.4538 77.1651 15.4122 76.8348C15.4055 77.1596 15.3696 77.4921 15.3372 77.8185C14.7266 84.8312 14.574 91.3566 15.0464 97.7457C15.3352 101.564 15.874 105.305 16.3254 109.07C16.6172 111.617 16.6637 114.162 17.0583 116.723C17.3377 118.679 17.6904 120.637 18.0942 122.591C18.6531 118.67 19.2887 114.958 20.1572 111.455C21.6531 105.491 23.7305 100.143 26.8172 95.4511C28.4324 93.0235 30.2587 90.7425 32.5199 88.7042C36.3819 85.1954 41.27 82.3283 47.5223 80.101C46.6901 77.7145 46.929 74.7963 47.733 72.6069C48.743 69.8258 52.2264 68.6164 54.7425 70.2704C54.8045 70.3267 54.8907 70.3765 54.9527 70.4328C55.8161 70.5452 56.6354 70.784 57.3476 71.2651C64.3281 75.8375 56.8652 89.0196 49.4338 82.9586C49.3692 82.8926 49.2791 82.8282 49.2119 82.7525ZM38.7895 432.598C37.4376 434.648 36.0992 436.767 34.5068 438.735C31.6151 442.328 28.3295 445.713 25.3308 448.887C19.8981 454.639 14.0492 460.024 7.85963 465.032C1.68815 470.029 -4.82891 474.65 -11.5351 478.838L-25.4761 487.417C-26.5992 488.125 -27.8363 488.795 -29.0349 489.512C-29.5826 489.742 -30.1533 489.983 -30.6971 490.228C-30.6538 490.195 -30.6395 490.171 -30.6204 490.145C-30.1582 489.693 -29.6989 489.21 -29.2974 488.707L-25.7522 483.918C-23.2981 481.162 -20.7816 478.269 -18.1822 475.51C-16.4519 473.687 -14.6791 471.925 -12.8724 470.29C-11.068 468.666 -9.19748 467.269 -7.27536 465.967C-4.30472 463.953 -1.19575 462.182 1.95 460.277L9.20774 455.795C11.0333 454.775 12.9369 453.968 14.7846 453.03C15.6413 452.592 16.4707 452.13 17.2835 451.626C18.287 450.998 19.2698 450.292 20.2372 449.548C21.5912 448.498 22.8988 447.372 24.2272 446.323C26.1487 444.766 28.1102 443.34 29.9494 441.748C31.2158 440.643 32.4371 439.467 33.5245 438.16C34.4454 437.048 35.3599 435.913 36.3464 434.851C36.9659 434.17 37.643 433.509 38.3592 432.916L38.7895 432.598ZM38.0847 435.896C37.3857 437.292 36.6313 438.655 35.9488 440.015C34.5443 442.782 32.9608 445.425 31.2655 448.02C28.768 451.898 25.9896 455.622 22.9151 459.076C17.7572 464.843 11.8509 469.936 5.46341 474.205C3.28746 475.726 0.73623 477.498 -1.9676 479.051L-2.34333 479.203C-8.3125 481.574 -14.2891 483.935 -20.3112 486.205L-10.6838 480.188C-3.95337 475.916 2.56621 471.226 8.76544 466.138C14.9611 461.056 20.8316 455.577 26.2642 449.746C29.2561 446.528 32.5647 443.131 35.4293 439.457C36.3395 438.286 37.2448 437.116 38.0847 435.896ZM-5.88686 352.13C-5.9094 352.24 -5.90411 352.338 -5.90367 352.436C-6.51839 358.695 -6.74607 365.037 -6.74753 371.408C-6.74427 381.975 -6.06657 392.59 -5.45753 402.969C-4.88823 412.363 -4.66418 422.491 -6.23925 432.163C-6.84369 435.914 -7.68087 439.612 -8.93471 443.135C-9.43979 443.797 -9.97438 444.445 -10.5142 445.074C-10.6397 445.228 -10.8512 445.352 -10.8941 445.562C-11.0537 446.229 -10.8264 445.814 -10.6493 446.475C-10.7901 446.591 -10.8087 446.794 -10.7003 446.926C-10.6694 446.944 -10.6399 446.957 -10.6347 446.976C-10.7291 447.168 -10.8222 447.365 -10.9166 447.557C-11.1167 444.731 -11.458 441.999 -11.6691 439.753C-11.8948 437.725 -12.0403 435.822 -12.5134 433.959C-12.5633 433.675 -12.6375 433.398 -12.7361 433.128C-12.8183 432.374 -12.92 431.625 -13.0191 430.886L-13.1604 429.736C-13.4397 427.139 -13.7458 424.539 -14.0519 421.939C-15.027 413.304 -15.808 404.383 -15.6342 395.565C-15.5802 391.665 -15.2293 387.785 -14.7957 383.96C-14.3343 380.123 -13.7429 376.324 -12.7618 372.618C-12.0318 369.511 -11.193 366.635 -10.2502 363.778C-9.34035 360.915 -8.36537 358.08 -7.05023 355.155C-6.82333 354.641 -6.43337 353.375 -5.88686 352.13ZM-4.96404 350.112C-4.91173 349.957 -4.87626 349.817 -4.83296 349.707L-4.34621 350.785L-1.8909 356.585C-0.979872 358.799 -0.262537 361.107 0.31388 363.453C1.16914 366.995 1.7244 370.622 2.16746 374.18C3.34147 383.033 3.5972 391.995 2.88776 400.894C2.32361 407.983 1.11026 415.001 -0.625941 421.914C-1.0656 423.636 -1.50525 425.358 -2.0013 427.064C-2.92183 430.451 -3.9884 433.935 -5.45286 437.197C-5.57407 437.464 -5.67713 437.721 -5.80581 437.979C-5.37051 436.144 -5.01366 434.288 -4.71582 432.406C-3.19403 422.613 -3.42471 412.383 -3.99219 402.878C-4.52913 394.246 -5.07989 385.445 -5.29006 376.653C-5.46091 368.745 -5.33132 360.851 -4.70545 353.079C-4.65109 352.465 -4.49659 351.856 -4.56406 351.254C-4.57287 350.95 -4.6804 350.723 -4.75723 350.436C-4.74865 350.294 -4.83144 350.159 -4.96404 350.112ZM18.2908 383.756C16.4532 389.65 14.4072 395.484 12.1745 401.244C11.8778 401.964 11.6042 402.673 11.3319 403.387C11.944 400.384 12.6618 397.426 13.7373 394.617C14.6746 392.012 15.7948 389.467 16.893 386.917C17.3402 385.865 17.8131 384.811 18.2908 383.756ZM27.5336 290.309C27.6962 291.557 27.8344 292.812 27.975 294.056C24.3821 292.018 20.5809 290.214 16.9928 288.097C15.1608 286.994 13.3556 285.816 11.7012 284.463C10.2736 283.314 8.94733 282.097 7.62106 280.879C4.45563 277.988 1.51945 274.941 -1.22183 271.727C-4.78387 267.531 -8.05001 263.078 -11.2997 258.589C-13.47 255.582 -15.6916 252.578 -17.8901 249.563C-20.1519 246.487 -22.4649 243.492 -24.6803 240.413C-25.1092 239.804 -25.5428 239.197 -25.973 238.583C-22.8336 241.669 -19.6317 244.696 -16.5308 247.813C-7.17336 257.155 2.00896 266.679 11.4253 275.969C15.9366 280.443 21.1121 284.363 25.8258 288.678C26.4045 289.206 26.9691 289.757 27.5336 290.309ZM25.8589 286.878C21.4344 282.844 16.6625 279.128 12.4621 274.92C5.07693 267.477 -2.26479 260.001 -9.51559 252.418C-12.1037 249.679 -14.7112 246.946 -17.2633 244.166C-20.3292 240.81 -23.2374 237.324 -26.2912 233.954C-25.1728 234.571 -24.0465 235.218 -22.9623 235.901C-20.673 237.35 -18.4437 238.925 -16.3758 240.558C-11.2744 244.493 -6.61756 248.772 -2.18987 253.283C2.26992 257.818 6.497 262.591 10.6757 267.534C12.5605 269.748 14.4377 272.011 16.3165 274.299C17.0228 275.302 17.7739 276.278 18.5418 277.239C19.6836 278.662 20.8361 280.067 22.0164 281.459C22.8234 282.566 23.6148 283.693 24.3988 284.811C24.9009 285.499 25.3762 286.184 25.8589 286.878ZM-19.8646 163.023C-19.9763 163.053 -20.0891 163.099 -20.1661 163.161C-20.1432 163.072 -20.0921 162.99 -19.992 162.916C-19.9257 162.873 -19.8983 162.975 -19.8646 163.023ZM-19.6241 162.735C-19.5907 162.762 -19.5842 162.786 -19.5777 162.811C-19.5725 162.83 -19.5929 162.851 -19.6159 162.862C-19.6826 162.886 -19.6496 162.814 -19.6241 162.735ZM90.8975 294.113C88.2335 295.639 85.6442 297.249 83.1571 298.989C78.6348 302.133 74.3862 305.657 70.3709 309.41C63.6825 315.666 57.7341 322.681 52.6576 330.385C48.8797 336.132 45.277 342.066 41.3651 347.76C39.6806 350.201 37.9487 352.582 36.157 354.896C35.2261 356.067 34.3476 357.24 33.4089 358.382C34.1749 356.692 34.8664 354.997 35.5514 353.277C41.5847 345.217 46.6564 336.29 52.828 328.397C54.7791 325.843 56.9113 323.246 59.105 320.606C62.2362 316.819 65.5511 312.998 69.0981 309.48C73.0946 305.482 77.3336 301.825 81.8131 298.969C83.428 297.901 85.0185 296.839 86.6955 295.905C87.8005 295.286 88.9149 294.722 90.0797 294.248C90.1694 294.214 90.497 294.173 90.8975 294.113ZM90.2631 295.574C90.0726 295.855 89.9028 296.134 89.7061 296.411C89.5857 296.584 89.4605 296.758 89.3366 296.937C89.2292 297.081 89.1231 297.229 89.0169 297.377C88.6449 297.893 88.268 298.411 87.8959 298.927C86.67 300.631 85.4697 302.333 84.3019 304.078C83.2962 305.592 82.319 307.135 81.3445 308.688C80.5284 310.016 79.7137 311.349 78.9284 312.695C77.9427 314.381 76.9864 316.08 76.0535 317.788C72.7849 323.706 69.6628 329.704 66.0517 335.432C65.1322 336.918 64.1611 338.387 63.1566 339.828C61.8337 341.713 60.4489 343.543 58.9404 345.28C56.6673 347.916 54.1489 350.335 51.4076 352.486C50.762 352.993 50.1186 353.488 49.4357 353.952C48.4452 354.629 47.417 355.243 46.3502 355.81C44.4129 356.861 42.4043 357.743 40.3595 358.567C38.4237 359.351 36.5006 360.085 34.5623 360.86L34.4071 360.922C35.6387 359.415 36.7468 357.816 37.909 356.244C40.2754 353.063 42.4836 349.758 44.6567 346.399C47.881 341.405 50.9549 336.316 54.1554 331.349C59.0595 323.701 64.8656 316.718 71.3846 310.471C75.3046 306.713 79.5251 303.259 83.8686 300.012C86.0056 298.423 88.1724 296.869 90.3857 295.39L90.2631 295.574ZM16.1184 139.709C15.9333 141.837 15.7495 143.97 15.6069 146.081C15.1452 145.621 14.699 145.142 14.2706 144.631C12.4464 142.469 10.8943 139.942 9.36875 137.903C7.87322 136.054 6.34827 134.27 4.95158 132.42C2.81422 129.633 0.960279 126.718 -0.726885 123.707C-2.51151 120.487 -4.02931 117.097 -4.91409 113.251C-5.27998 111.885 -5.58826 110.462 -5.87449 109.044C-6.13287 107.613 -6.3705 106.182 -6.52839 104.777L-6.94663 99.2116L-6.9996 97.7309C-6.9411 97.8715 -6.87644 98.0157 -6.83607 98.1663C-6.24004 99.5743 -5.70683 101.02 -5.01586 102.413C-3.03407 106.544 -0.486677 110.491 1.54056 114.422C5.26668 121.408 8.78132 128.519 13.1561 135.107C14.1457 136.623 15.066 138.231 16.1184 139.709ZM16.8539 132.793C16.7182 133.939 16.5899 135.093 16.4656 136.262C16.4574 136.426 16.4297 136.594 16.402 136.763C15.9884 136.114 15.5699 135.465 15.1501 134.812C13.7757 132.696 12.4487 130.562 11.1589 128.392C8.33042 123.551 5.68298 118.588 2.97139 113.658C0.474546 109.161 -2.75437 104.672 -4.97096 99.8593C-5.35563 99.0457 -5.74646 98.2285 -6.02198 97.3753C-6.3974 96.1685 -6.60369 94.9321 -6.77111 93.6853C-6.73303 93.5553 -6.69234 93.435 -6.64288 93.328C-6.59317 93.1636 -6.59276 92.9708 -6.47188 92.9749C-6.32278 92.987 -6.46308 93.2798 -6.30574 93.42C-5.7694 93.9637 -5.1163 94.8461 -4.40255 95.7798C-3.6455 96.6031 -2.94998 97.4688 -2.28006 98.3362C-0.615367 100.447 0.852078 102.658 2.42098 104.879L4.66031 107.852C6.04008 109.638 7.28813 111.575 8.45913 113.573C9.61104 115.598 10.6784 117.677 11.6236 119.747C12.4886 121.692 13.2742 123.632 14.0608 125.557C14.8361 127.537 15.6 129.494 16.3471 131.465C16.5168 131.904 16.6829 132.349 16.8539 132.793ZM63.7567 161.06C62.3492 164.01 60.8308 166.896 59.4836 169.877C59.1381 170.667 58.8186 171.477 58.4978 172.281C55.876 178.786 53.3713 185.28 49.8904 191.203C48.73 193.17 47.47 195.096 46.0235 196.89C44.613 198.643 42.9975 200.253 41.2649 201.795C37.4115 205.161 32.4013 207.3 27.9457 210.052C30.9758 203.886 34.016 197.659 37.6265 191.754C42.1388 184.394 47.2408 177.407 52.7698 170.926C53.9545 169.535 55.3063 168.204 56.6966 166.92C58.9491 164.869 61.3832 162.951 63.7567 161.06ZM29.6922 200.922C30.5791 198.945 31.524 197.009 32.5218 195.096C33.572 193.106 34.6531 191.134 35.819 189.207C38.174 185.342 40.8406 181.648 43.6489 178.114C45.5455 175.726 47.5014 173.384 49.5141 171.157C51.4346 169.033 53.4652 167.067 55.5743 165.2C57.7258 163.316 59.9342 161.547 62.2518 159.817C62.8272 159.418 63.4091 159.043 64.0244 158.696C64.5769 158.387 65.1311 158.103 65.7222 157.84C65.6992 157.852 65.7018 157.861 65.7044 157.871C65.5939 157.906 65.4812 157.952 65.376 158.006C62.8974 159.311 60.8395 161.466 58.6004 163.295C56.0593 165.377 53.6518 167.569 51.5996 169.921C45.9229 176.396 40.7827 183.435 36.039 190.747C33.8646 194.101 31.7223 197.477 29.6922 200.922ZM60.1265 259.164C59.9388 259.105 59.755 259.061 59.5764 259.036C59.6687 259.011 59.7624 258.991 59.8564 258.992L59.9076 258.989C59.9708 259.05 60.0571 259.1 60.1265 259.164ZM15.3876 67.8986C15.398 67.9375 15.4265 67.9663 15.4123 67.9909C15.4188 68.0152 15.3741 68.0428 15.356 68.0529C15.265 68.0825 15.2892 67.9979 15.3876 67.8986ZM54.9527 70.4328C56.2611 71.3895 57.2061 73.0113 57.6389 74.7235C57.3396 74.0537 56.9674 73.4034 56.5143 72.8009L55.0228 74.6016C53.9834 73.1717 52.1311 72.168 50.2754 72.6288C49.1998 72.891 48.6903 74.4494 48.4584 75.3917C48.38 75.7409 48.3299 76.0981 48.3504 76.4467C48.3475 76.7079 48.3883 76.9574 48.411 77.217C48.5733 78.0172 48.9317 78.791 49.4468 79.4499L49.3545 79.4746C49.312 79.4912 49.244 79.5094 49.1967 79.5273L49.0438 79.5787C48.747 78.8405 48.5322 78.0387 48.411 77.217C48.364 76.9639 48.3462 76.7031 48.3504 76.4467C48.2122 74.3952 48.6916 72.3552 49.9077 71.1596C51.1226 69.959 53.3846 70.2176 54.9037 70.4251C54.9293 70.4234 54.9501 70.4231 54.9527 70.4328ZM57.6389 74.7235C58.4327 76.5004 58.6233 78.4754 57.7737 80.4167C56.9354 82.3809 53.1228 83.5275 51.2197 82.3343C51.0754 82.2427 50.9223 82.1379 50.7935 82.0266C50.8819 81.9873 50.9703 81.9479 51.0588 81.9086C51.3898 81.7835 51.6446 81.5485 51.8056 81.2554C52.1849 81.3881 52.5551 81.4868 52.9512 81.5266C57.3847 81.9584 58.5374 78.1547 57.6389 74.7235ZM55.0228 74.6016C56.2314 76.2934 56.3103 78.59 53.8621 79.8137C50.6819 81.4158 50.3954 75.9925 52.2884 74.4072C52.7481 74.0236 53.2954 75.0748 53.7091 75.5109C53.7828 75.6109 53.863 75.7353 53.9701 75.8628L55.0228 74.6016ZM53.9701 75.8628C54.8158 77.0946 55.7078 79.7046 53.2628 79.2295C52.773 79.1316 52.0925 78.866 51.633 78.687L53.9701 75.8628Z" fill="#28221E"/>
</g>
</g>
<defs>
<clipPath id="clip0_1_1323">
<rect width="482.971" height="482.971" fill="white" transform="matrix(-0.258819 -0.965926 -0.965926 0.258819 263.516 466.514)"/>
</clipPath>
</defs>
</svg>
