<svg width="414" height="682" viewBox="0 0 414 682" fill="none" xmlns="http://www.w3.org/2000/svg">
<g opacity="0.05" clip-path="url(#clip0_1_1400)">
<mask id="mask0_1_1400" style="mask-type:luminance" maskUnits="userSpaceOnUse" x="71" y="86" width="540" height="525">
<path d="M610.762 379.568L271.752 86.3916L71.9832 317.391L410.994 610.568L610.762 379.568Z" fill="white"/>
</mask>
<g mask="url(#mask0_1_1400)">
<path fill-rule="evenodd" clip-rule="evenodd" d="M288.583 119.006C285.437 124.413 283.726 129.444 282.957 134.287C282.555 136.866 282.427 139.376 282.567 141.891C282.851 146.899 284.253 151.816 286.284 156.905C289.011 163.719 292.888 170.804 297.184 178.603C297.795 179.75 298.419 180.882 299.053 181.995C300.948 183.634 302.86 185.314 304.807 187.031C304.941 187.147 304.963 187.352 304.845 187.496C304.74 187.625 304.525 187.658 304.388 187.54C303.098 186.578 301.82 185.632 300.574 184.674C309.09 199.515 318.49 213.065 328.469 225.991C327.924 225.114 327.375 224.234 326.867 223.329C324.783 219.624 322.955 215.709 321.338 211.663C319.111 206.032 317.332 200.137 315.84 194.171C314.785 189.9 313.881 185.6 313.159 181.297C312.247 175.906 311.574 170.555 311.09 165.315C310.233 165.098 309.404 164.788 308.644 164.383C306.623 163.32 305.147 161.604 304.762 159.403C304.486 157.7 304.623 156.296 305.063 154.994C305.329 154.226 305.687 153.512 306.128 152.802C306.366 152.257 306.689 151.73 307.117 151.196C307.336 150.92 307.561 150.676 307.784 150.463C307.996 150.18 308.198 149.923 308.423 149.679C308.857 149.216 309.369 148.847 309.833 148.656C313.442 147.075 317.238 148.861 319.32 151.753C320.12 152.85 320.64 154.111 320.825 155.389C322.309 159.133 321.372 163.431 317.043 165.168C316.254 165.45 315.304 165.626 314.321 165.647C315.191 170.756 316.175 175.971 317.36 181.199C318.775 187.431 320.427 193.689 322.423 199.772C324.192 205.225 326.236 210.545 328.532 215.643C330.096 219.118 331.727 222.516 333.592 225.72C334.023 226.498 334.454 227.269 334.898 228.033C334.456 225.967 334.093 223.911 333.838 221.821C333.568 219.472 333.443 217.117 333.407 214.751C333.313 210.06 333.561 205.359 334.17 200.718C334.572 197.607 335.155 194.533 335.79 191.53C336.432 188.626 337.224 185.826 338.155 183.08C339.084 180.338 340.148 177.646 341.318 174.954C341.596 174.256 341.893 173.582 342.22 172.927C342.56 172.257 342.927 171.609 343.321 170.985C343.5 170.701 343.654 170.123 343.804 169.88C344.093 169.438 344.429 169.45 344.988 169.627C345.354 169.318 344.976 169.71 345.413 169.496C345.571 169.413 345.482 169.462 345.646 169.511C346.011 169.574 346.16 170.109 346.365 170.565C346.887 171.768 347.083 173.833 347.248 174.627L349.446 187.337C350.615 194.354 351.782 201.31 351.996 208.285C352.063 210.645 351.989 213.015 351.846 215.379C351.689 217.731 351.481 220.078 351.016 222.477C349.973 228.299 346.802 233.811 345.048 239.577C344.825 240.289 344.677 241.006 344.47 241.698C344.426 241.873 344.366 242.073 344.305 242.267C350.254 250.431 356.685 258.301 362.551 266.361C371.332 276.135 380.332 285.941 389.468 296.057C403.309 311.385 414.545 328.604 423.385 347.024C421.791 340.791 420.162 334.646 418.574 328.79C415.761 317.923 412.689 307.046 409.082 296.358C408.1 293.486 407.073 290.636 406.039 287.779C403.832 281.694 400.85 275.943 398.648 269.868C394.917 270.067 392.137 266.944 391.241 263.243C390.242 259.013 391.722 254.473 396.144 253.874C399.808 253.305 402.902 255.981 404.078 259.212C404.419 260.126 404.605 261.065 404.618 261.98C404.815 263.275 404.619 264.662 404.086 265.91C403.522 267.232 402.555 268.357 401.33 269.074C404.711 275.424 407.707 281.965 410.372 288.66C415.425 301.344 419.308 314.513 422.985 327.589C424.038 331.586 425.233 335.673 426.384 339.841L426.36 339.261C426.24 336.477 426.117 333.697 426.029 330.907C425.953 328.819 425.9 326.718 425.891 324.622C425.89 323.191 425.902 321.771 425.935 320.363C425.965 319.491 426.005 318.621 426.033 317.774C426.112 316.16 426.186 314.574 426.312 312.974C426.419 311.597 426.542 310.24 426.693 308.88C427.009 306.1 427.428 303.317 427.937 300.551C428.539 297.24 429.291 293.94 430.242 290.679C431.3 287.018 432.588 283.429 434.199 279.966C434.335 279.678 434.471 279.39 434.607 279.102C434.682 278.954 434.743 278.821 434.822 278.669C435.074 278.169 435.335 277.676 435.592 277.187C436.13 276.156 436.694 275.12 437.274 274.126C437.614 273.548 437.956 272.999 438.322 272.445C438.621 271.991 438.931 271.541 439.252 271.1C439.388 270.912 439.548 270.704 439.695 270.519C439.793 270.391 439.898 270.262 439.998 270.13C440.184 269.884 440.366 269.636 440.568 269.379C440.846 269.027 441.127 268.678 441.432 268.349C441.694 268.077 441.967 267.815 442.327 267.66C442.452 267.608 442.564 267.586 442.699 267.576C442.758 267.561 442.794 267.566 442.841 267.573C442.849 267.58 442.857 267.586 442.877 267.578C442.881 267.581 442.885 267.584 442.889 267.587C442.893 267.591 442.893 267.591 442.909 267.572C442.913 267.575 442.933 267.559 442.95 267.547C443.022 267.51 443.095 267.48 443.158 267.507C443.248 267.519 443.296 267.594 443.357 267.646C443.452 267.729 443.543 267.807 443.647 267.864C443.704 267.914 443.757 267.96 443.811 268.006C443.849 268.039 443.904 268.06 443.942 268.092C443.963 268.137 443.997 268.167 444.011 268.212C444.021 268.254 444.048 268.277 444.065 268.319C444.18 268.578 444.25 268.851 444.305 269.118C444.395 269.575 444.436 270.043 444.453 270.524C444.482 271.114 444.482 271.699 444.474 272.284C444.472 272.502 444.47 272.719 444.451 272.949C444.454 273.045 444.447 273.138 444.45 273.235C444.537 279.003 444.6 284.791 444.682 290.556C444.678 290.645 444.687 290.719 444.683 290.809C444.691 290.969 444.696 291.133 444.704 291.292C444.712 291.706 444.741 292.103 444.75 292.516C444.824 293.891 444.914 295.272 445 296.657C445.509 304.321 446.299 311.975 446.397 319.661C446.429 321.085 446.42 322.541 446.389 323.977C446.317 325.944 446.215 327.878 446.032 329.835C445.698 333.782 445.089 337.739 444.023 341.58C443.871 342.133 443.707 342.676 443.543 343.219C443.464 343.464 443.386 343.709 443.303 343.95C442.499 346.334 441.415 348.61 440.195 350.82C439.798 351.534 439.392 352.241 438.976 352.945C438.731 353.352 438.499 353.743 438.251 354.154C437.869 354.788 437.536 355.464 437.219 356.154C436.785 357.117 436.366 358.124 435.898 359.089C435.371 360.19 434.771 361.261 433.934 362.16C433.696 362.42 433.455 362.644 433.196 362.859C433.122 362.922 433.048 362.977 432.97 363.036C432.926 363.064 432.872 363.104 432.803 363.144C432.758 363.165 432.706 363.18 432.643 363.192C432.571 363.19 432.505 363.166 432.438 363.167C432.358 363.159 432.284 363.161 432.207 363.188C432.086 363.236 431.989 363.278 431.896 363.324C431.81 363.37 431.729 363.426 431.643 363.478C431.602 363.503 431.558 363.531 431.497 363.571C431.48 363.583 431.472 363.576 431.452 363.592C431.452 363.592 431.439 363.614 431.443 363.618C431.43 363.633 431.417 363.655 431.401 363.674C431.358 363.731 431.309 363.781 431.268 363.805L431.251 363.824C431.327 364.482 431.387 365.152 431.443 365.825C435.896 377.619 439.49 389.753 442.222 402.145C446.756 422.661 448.993 443.778 449.16 464.781C449.24 465.442 449.251 466.076 449.236 466.716C449.266 466.928 449.245 467.129 449.165 467.306C449.15 481.467 448.199 495.557 446.4 509.352C447.147 508.003 447.891 506.657 448.667 505.299L448.726 504.885C448.94 503.514 449.312 502.092 449.548 500.674C449.638 500.1 449.713 499.513 449.719 498.96L449.766 492.861C450.101 489.166 450.418 485.331 450.861 481.543C451.146 478.99 451.511 476.438 451.998 473.959C452.483 471.452 453.164 469.088 453.966 466.762C455.143 463.323 456.585 459.995 457.975 456.527C458.743 454.638 459.394 452.739 460.163 450.85C460.495 450.02 460.866 449.184 461.266 448.352L465.655 440.562C466.128 439.6 466.543 438.589 466.919 437.577C467.5 435.991 468.04 434.343 468.621 432.757C469.631 430.112 470.755 427.566 471.615 424.917C471.988 423.802 472.304 422.706 472.532 421.566C472.822 420.107 473.076 418.644 473.449 417.191C473.701 416.199 473.988 415.229 474.368 414.281L475.546 411.442C475.656 411.131 475.762 410.378 475.848 410.24C476.086 409.88 476.37 409.813 476.62 409.817C476.809 409.821 477.208 409.86 477.408 410.405C477.855 411.503 478.157 412.669 478.452 413.828C479.12 416.462 479.543 419.196 480.03 421.825C480.62 424.949 481.039 428.111 481.208 431.284C481.477 436.026 481.19 440.826 480.601 445.545C479.749 452.098 478.17 458.547 475.972 464.742C480.532 457.723 484.93 450.599 489.016 443.298C494.549 433.416 499.61 423.28 503.99 412.654C500.086 410.616 497.438 406.709 499.224 402.114C499.815 400.384 501.393 398.23 503.287 396.755C504.742 395.619 506.398 394.903 507.927 394.881C510.894 394.834 513.712 396.805 515.551 399.486C515.832 399.915 516.085 400.353 516.313 400.797C517.091 401.782 517.676 402.974 518.02 404.268C518.344 405.547 518.542 406.895 518.397 408.14C518.256 409.295 517.729 410.335 516.868 411.3C516.066 412.104 515.108 412.712 514.045 413.095C513.773 413.233 513.503 413.345 513.228 413.447C511.154 414.207 508.667 414.238 506.361 413.581C501.573 428.124 494.91 441.697 487.709 454.931C482.526 464.463 476.92 473.782 470.854 482.889C466.852 488.894 462.604 494.751 458.332 500.615C454.892 505.269 452.496 510.639 449.166 515.382C448.25 516.679 447.347 517.986 446.185 519.037C445.726 519.451 445.279 519.776 444.806 520.085C444.777 520.28 444.732 520.487 444.699 520.678C441.351 540.171 437.187 558.706 430.018 576.171C425.244 587.799 419.113 598.872 411.348 609.597C411.084 609.987 410.529 610.106 410.138 609.827C409.746 609.549 409.633 609.019 409.917 608.606C416.979 597.686 422.253 586.396 426.538 574.811C427.63 571.864 428.703 568.901 429.661 565.932C434.452 551.232 437.61 535.905 440.079 519.922C442.759 503.117 444.109 485.82 444.034 468.416L441.685 462.865C440.917 460.892 439.776 459.127 438.518 457.42C436.472 454.68 434.073 452.139 431.914 449.56C431.528 449.067 431.152 448.556 430.764 448.067C426.383 443.188 421.954 438.326 417.64 433.385C412.62 427.607 407.851 421.647 403.62 415.341C395.49 402.769 388.531 389.249 380.403 376.613C377.186 371.589 373.692 366.792 370.031 362.103C369.56 361.509 369.11 360.9 368.642 360.31C368.326 360.468 368.007 360.598 367.66 360.737C366.136 361.315 364.487 361.538 362.895 361.226C360.22 360.681 357.983 358.907 356.779 356.622C355.528 354.262 355.344 351.39 356.773 348.861C357.114 348.252 358.33 346.968 359.743 345.889C360.293 344.522 361.548 344.024 363.053 344.076C363.724 343.877 364.349 343.8 364.853 343.856C367.216 344.131 370.306 346.211 372.082 348.864C373.485 350.949 373.979 353.338 373.306 355.463C373.071 356.165 372.707 356.755 372.233 357.249C372.011 357.583 371.759 357.897 371.464 358.2C371.352 358.323 371.235 358.442 371.128 358.535C371.424 358.824 371.719 359.106 371.998 359.414C374.657 362.145 377.028 365.134 379.348 368.165C384.627 375.098 389.346 382.477 393.971 389.936C393.416 387.993 392.964 386.046 392.629 384.073C392.219 381.57 392.028 379.037 391.92 376.356C391.873 375.571 391.297 373.177 391.644 371.422C391.877 370.253 392.323 369.421 393.016 369.089C393.086 369.024 393.382 368.874 393.778 369.03C394.19 369.2 395.16 369.786 395.31 369.89L400.813 373.025C402.931 374.298 404.965 375.745 406.903 377.328C409.798 379.679 412.499 382.293 415.044 384.927C421.334 391.551 426.934 398.827 431.665 406.624C435.175 412.393 438.259 418.426 440.721 424.725C440.209 421.356 439.654 417.982 439.023 414.636C436.374 409.046 433.252 403.573 431.561 397.721C430.591 394.075 429.819 390.361 429.27 386.581C428.543 381.815 428.114 376.988 427.537 372.225C419.169 349.199 407.423 327.587 391.916 308.57C387.156 309.122 382.38 310.26 377.549 310.871C375.202 311.176 372.856 311.329 370.511 311.263C368.571 311.208 366.668 311.085 364.769 310.873C360.312 310.351 355.958 309.386 351.679 308.213C346.238 306.713 340.892 304.857 335.587 302.824C332.11 301.499 328.678 300.061 325.19 298.695C321.642 297.276 318.098 295.92 314.569 294.518C312.183 293.578 309.812 292.619 307.467 291.555C306.361 291.064 304.168 290.385 302.614 289.414C301.564 288.751 300.783 287.924 300.4 287.06C300.105 286.339 300.219 285.753 300.439 285.291C300.645 284.877 300.995 284.495 301.569 284.246C302.057 284.043 303.204 284.071 303.796 283.924L306.193 283.383C308.936 282.895 311.788 282.621 314.667 282.491C317.512 282.37 320.368 282.413 323.148 282.575C329.745 283.045 336.168 284.024 342.518 285.372C345.699 286.04 348.85 286.803 352.006 287.63C351.459 287.317 350.911 286.996 350.367 286.679C339.081 279.972 328.542 272.6 318.521 264.559C312.072 259.388 305.808 253.971 299.704 248.286C293.849 242.85 288.085 237.24 282.446 231.34C282.258 231.457 282.059 231.564 281.836 231.683C278.097 233.492 273.998 231.41 271.985 228.146C271.409 227.182 271.013 226.155 270.839 225.126C270.031 222.346 270.902 219.454 274.598 217.888C277.695 216.582 280.864 217.733 282.991 219.911C283.802 220.427 284.473 221.074 284.95 221.799C285.737 223.004 286.053 224.462 285.607 226.038C285.586 227.078 285.328 228.099 284.779 229.027C286.541 230.551 288.249 232.121 289.999 233.635C293.98 237.137 297.957 240.576 301.932 243.987C304.604 246.265 307.253 248.555 309.914 250.824C316.602 256.488 323.36 261.986 330.344 267.247C338.398 273.308 346.784 278.978 355.555 284.441C359.234 286.718 362.909 289.058 366.739 291.252C367.808 291.831 368.891 292.363 369.973 292.866C370.484 293.021 370.995 293.184 371.486 293.362C373.727 294.116 375.928 294.963 378.111 295.853C379.385 296.303 380.683 296.74 381.955 297.215C361.909 275.303 342.429 254.811 324.905 232.374C315.079 219.793 305.877 206.607 297.476 192.271C297.202 192.287 296.928 192.297 296.66 192.284C296.217 192.273 295.777 192.205 295.337 192.137C292.05 191.662 288.704 190.293 285.781 189.474C283.52 188.735 281.286 187.988 279.067 187.286C275.606 186.188 272.165 185.175 268.918 183.677C265.318 181.994 261.923 179.836 258.763 176.977C257.674 175.975 256.604 174.897 255.567 173.781C254.53 172.664 253.547 171.502 252.611 170.353L249.248 165.636L247.73 163.046L246.946 161.184C246.335 159.099 246.814 158.236 247.259 157.63C247.499 157.306 247.65 157.124 248.05 156.877C248.156 156.816 248.278 156.828 248.418 156.79C249.319 156.571 250.666 156.712 252.073 156.778C253.718 156.983 255.294 157.322 256.862 157.74C259.109 158.379 261.295 159.212 263.564 159.957L267.077 161.094C269.351 161.91 271.621 162.908 273.825 164.036C274.215 164.247 274.601 164.461 275.011 164.656C274.527 164.27 274.083 163.853 273.632 163.436C271.211 161.183 268.993 158.733 266.921 156.137C262.259 150.329 258.163 143.86 255.116 136.277C254.732 135.352 254.392 134.4 254.089 133.426C253.3 133.362 252.484 133.222 251.699 132.976C248.972 132.114 246.519 130.205 245.358 127.771C244.943 126.913 244.385 125.72 244.203 124.531C244.116 124.024 244.084 123.523 244.127 123.035C244.035 122.018 244.023 120.763 244.24 119.734C244.466 118.719 244.949 117.893 245.613 117.309C248.301 114.939 252.09 114.757 255.227 116.006C257.774 116.745 259.953 118.57 261.235 120.796C261.937 122.029 262.365 123.396 262.411 124.773C262.42 125.339 262.378 125.895 262.278 126.434C262.448 128.383 261.828 130.215 260.218 131.563C259.334 132.262 258.336 132.769 257.289 133.08C257.465 133.353 257.622 133.648 257.779 133.937C261.21 140.083 264.746 145.569 268.723 150.592C271.106 153.59 273.652 156.383 276.138 159.246C277.81 161.19 279.276 163.27 281.041 165.168C282.37 166.63 283.761 168.052 285.192 169.443C283.454 165.884 281.896 162.455 280.648 159.068C278.539 153.293 277.256 147.701 277.177 142.085C277.151 139.17 277.382 136.257 278.11 133.301C279.336 128.229 281.772 123.112 285.696 117.76C283.668 116.252 282.228 113.702 281.664 111.439C280.939 108.571 283.143 105.614 286.154 105.571C286.237 105.583 286.336 105.576 286.419 105.587C287.197 105.196 288.009 104.934 288.868 104.932C297.212 104.798 298.435 119.896 288.882 119.052C288.792 119.033 288.681 119.031 288.583 119.006ZM476.331 414.389C476.362 416.844 476.444 419.349 476.231 421.872C475.855 426.468 475.036 431.114 474.335 435.424C473.068 443.234 471.25 450.974 468.939 458.592C466.636 466.193 463.837 473.675 460.637 480.905L453.915 495.831C453.383 497.046 452.735 498.295 452.146 499.561C451.821 500.059 451.485 500.58 451.172 501.087C451.19 501.036 451.188 501.008 451.189 500.976C451.318 500.342 451.427 499.685 451.477 499.043L451.723 493.09C452.206 489.431 452.665 485.624 453.268 481.882C453.676 479.402 454.155 476.949 454.732 474.581C455.314 472.224 456.078 470.018 456.938 467.862C458.266 464.527 459.845 461.317 461.379 457.974L464.87 450.192C465.808 448.322 466.93 446.586 467.933 444.773C468.396 443.93 468.824 443.082 469.213 442.208C469.691 441.125 470.108 439.989 470.491 438.831C471.022 437.201 471.472 435.535 471.983 433.922C472.699 431.555 473.522 429.273 474.151 426.923C474.579 425.298 474.929 423.639 475.095 421.947C475.234 420.51 475.353 419.057 475.574 417.625C475.704 416.713 475.893 415.787 476.153 414.894L476.331 414.389ZM477.599 417.514C477.804 419.061 477.945 420.613 478.143 422.122C478.534 425.2 478.707 428.277 478.761 431.376C478.87 435.987 478.661 440.628 478.055 445.212C477.024 452.881 474.995 460.411 472.105 467.529C471.157 470.009 470.041 472.908 468.675 475.711L468.449 476.048C464.84 481.36 461.219 486.67 457.509 491.929L462.1 481.545C465.272 474.231 468.035 466.69 470.309 459C472.584 451.316 474.367 443.486 475.59 435.611C476.26 431.268 477.091 426.6 477.4 421.951C477.496 420.471 477.588 418.995 477.599 417.514ZM394.189 372.871C394.232 372.975 394.291 373.052 394.347 373.134C397.351 378.658 400.723 384.035 404.297 389.308C410.231 398.052 416.751 406.457 423.08 414.704C428.825 422.159 434.695 430.415 438.821 439.304C440.426 442.747 441.809 446.278 442.749 449.898C442.702 450.729 442.624 451.566 442.53 452.389C442.512 452.587 442.407 452.808 442.489 453.006C442.732 453.648 442.687 453.177 443.205 453.624C443.153 453.799 443.252 453.978 443.416 454.026C443.451 454.024 443.483 454.018 443.498 454.031C443.528 454.243 443.561 454.458 443.591 454.67C441.838 452.443 440.023 450.374 438.588 448.634C437.262 447.082 436.073 445.588 434.636 444.312C434.436 444.106 434.219 443.918 433.985 443.749C433.494 443.172 432.99 442.609 432.493 442.053L431.731 441.181C430.042 439.188 428.329 437.208 426.616 435.228C420.962 428.629 415.308 421.684 410.503 414.289C408.358 411.031 406.47 407.623 404.682 404.214C402.91 400.779 401.267 397.303 399.999 393.686C398.859 390.705 397.939 387.854 397.116 384.96C396.262 382.08 395.478 379.187 394.924 376.027C394.823 375.475 394.435 374.208 394.189 372.871ZM393.819 370.682C393.776 370.525 393.727 370.39 393.701 370.274L394.709 370.893L399.996 374.315C401.993 375.636 403.882 377.143 405.676 378.761C408.372 381.212 410.868 383.903 413.232 386.599C419.172 393.266 424.415 400.54 428.823 408.303C432.335 414.486 435.27 420.975 437.713 427.671C438.316 429.343 438.919 431.015 439.466 432.705C440.605 436.025 441.678 439.507 442.297 443.029C442.347 443.318 442.406 443.588 442.444 443.874C441.774 442.111 441.028 440.375 440.218 438.65C435.98 429.691 430.047 421.354 424.242 413.807C418.953 406.964 413.557 399.99 408.447 392.831C403.867 386.382 399.544 379.776 395.699 372.993C395.4 372.455 395.186 371.864 394.792 371.404C394.614 371.156 394.397 371.029 394.173 370.835C394.1 370.712 393.956 370.648 393.819 370.682ZM431.95 385.473C433.738 391.382 435.32 397.36 436.705 403.38C436.864 404.142 437.035 404.882 437.21 405.626C436.031 402.797 434.965 399.946 434.278 397.018C433.592 394.336 433.09 391.601 432.568 388.874C432.347 387.752 432.147 386.615 431.95 385.473ZM387.147 302.948C387.982 303.89 388.8 304.851 389.615 305.801C385.498 306.132 381.339 306.772 377.181 307.034C375.046 307.15 372.891 307.189 370.762 306.997C368.936 306.848 367.155 306.584 365.374 306.321C361.131 305.705 356.991 304.832 352.918 303.711C347.615 302.237 342.412 300.385 337.203 298.494C333.719 297.224 330.194 295.985 326.682 294.724C323.084 293.447 319.488 292.267 315.927 290.963C315.23 290.7 314.53 290.44 313.83 290.173C318.16 290.965 322.509 291.674 326.825 292.513C339.813 294.992 352.759 297.72 365.766 300.122C372.011 301.292 378.495 301.632 384.818 302.557C385.593 302.669 386.37 302.809 387.147 302.948ZM383.835 301.049C377.909 300.194 371.874 299.797 366.035 298.672C355.745 296.658 345.473 294.592 335.216 292.386C331.537 291.572 327.844 290.773 324.172 289.905C319.751 288.849 315.387 287.596 310.968 286.522C312.24 286.405 313.535 286.307 314.816 286.264C317.524 286.178 320.253 286.23 322.881 286.421C329.312 286.815 335.567 287.741 341.764 288.99C348 290.239 354.178 291.817 360.411 293.562C363.214 294.336 366.037 295.155 368.877 295.995C370.024 296.429 371.194 296.815 372.369 297.179C374.112 297.716 375.855 298.232 377.613 298.721C378.902 299.184 380.189 299.672 381.466 300.157C382.268 300.445 383.046 300.746 383.835 301.049ZM276.472 224.211C276.396 224.299 276.329 224.4 276.3 224.495C276.269 224.408 276.265 224.312 276.307 224.195C276.337 224.121 276.417 224.19 276.472 224.211ZM276.509 223.838C276.552 223.842 276.571 223.858 276.59 223.874C276.606 223.888 276.601 223.917 276.588 223.939C276.546 223.995 276.533 223.918 276.509 223.838ZM441.722 270.529C440.374 273.288 439.135 276.074 438.053 278.909C436.075 284.05 434.537 289.351 433.32 294.711C431.296 303.642 430.312 312.788 430.435 322.013C430.534 328.89 430.883 335.823 430.842 342.731C430.818 345.697 430.721 348.64 430.537 351.56C430.424 353.052 430.355 354.516 430.219 355.988C429.905 354.159 429.525 352.368 429.127 350.56C429.596 340.503 428.783 330.269 429.46 320.272C429.641 317.063 429.947 313.716 430.281 310.3C430.747 305.409 431.346 300.386 432.306 295.483C433.37 289.931 434.825 284.526 436.929 279.647C437.666 277.857 438.387 276.085 439.25 274.371C439.817 273.239 440.423 272.146 441.121 271.1C441.176 271.022 441.424 270.804 441.722 270.529ZM442.017 272.095C442.017 272.434 442.033 272.761 442.026 273.1C442.023 273.311 442.017 273.525 442.015 273.743C442.007 273.922 442.002 274.104 441.998 274.286C441.98 274.922 441.958 275.562 441.94 276.199C441.882 278.296 441.844 280.379 441.857 282.479C441.874 284.296 441.932 286.122 441.997 287.954C442.067 289.511 442.141 291.072 442.247 292.626C442.377 294.575 442.539 296.518 442.726 298.455C443.343 305.187 444.126 311.904 444.352 318.671C444.426 320.417 444.446 322.178 444.424 323.934C444.387 326.238 444.268 328.529 443.995 330.814C443.593 334.27 442.867 337.686 441.806 341.006C441.556 341.787 441.301 342.558 440.997 343.326C440.557 344.442 440.051 345.527 439.486 346.595C438.472 348.552 437.305 350.409 436.075 352.239C434.913 353.975 433.734 355.662 432.564 357.391L432.471 357.529C432.644 355.591 432.664 353.646 432.743 351.692C432.916 347.731 432.889 343.756 432.802 339.757C432.667 333.814 432.354 327.877 432.215 321.97C431.981 312.888 432.866 303.85 434.755 295.021C435.89 289.709 437.444 284.482 439.216 279.357C440.093 276.843 441.014 274.34 442.015 271.874L442.017 272.095ZM293.165 184.719C294.207 186.584 295.252 188.452 296.319 190.279C295.678 190.158 295.04 190.012 294.399 189.83C291.676 189.064 288.973 187.844 286.566 187.013C284.29 186.322 282.026 185.701 279.832 184.954C276.499 183.848 273.329 182.476 270.242 180.931C266.958 179.268 263.798 177.314 260.907 174.628C259.838 173.703 258.784 172.698 257.751 171.686C256.734 170.646 255.734 169.595 254.815 168.521L251.345 164.15L250.47 162.954C250.597 163.038 250.732 163.121 250.85 163.223C252.133 164.053 253.386 164.951 254.74 165.716C258.698 168.022 263.023 169.859 266.907 171.974C273.912 175.664 280.812 179.576 288.131 182.573C289.801 183.272 291.465 184.086 293.165 184.719ZM289.892 178.582C290.423 179.607 290.965 180.634 291.518 181.671C291.603 181.811 291.675 181.966 291.747 182.122C291.04 181.816 290.329 181.515 289.615 181.21C287.29 180.23 284.994 179.209 282.708 178.137C277.65 175.718 272.674 173.097 267.662 170.539C263.071 168.218 257.879 166.315 253.343 163.577C252.568 163.119 251.786 162.663 251.079 162.111C250.091 161.323 249.227 160.416 248.388 159.478C248.347 159.349 248.313 159.226 248.294 159.11C248.243 158.946 248.135 158.786 248.237 158.722C248.367 158.648 248.415 158.969 248.624 158.997C249.373 159.146 250.409 159.509 251.524 159.882C252.613 160.138 253.674 160.464 254.716 160.806C257.278 161.619 259.734 162.625 262.279 163.582L265.801 164.785C267.945 165.489 270.065 166.391 272.156 167.388C274.246 168.417 276.296 169.538 278.24 170.721C280.048 171.845 281.787 173.01 283.519 174.162C285.272 175.365 287.002 176.556 288.727 177.768C289.114 178.036 289.501 178.311 289.892 178.582ZM344.575 175.649C345.066 178.88 345.43 182.121 345.988 185.344C346.146 186.192 346.336 187.042 346.522 187.888C348.003 194.743 349.576 201.523 350.019 208.378C350.163 210.658 350.202 212.959 350.011 215.256C349.828 217.498 349.395 219.737 348.827 221.986C347.527 226.935 344.581 231.518 342.438 236.296C341.485 229.492 340.506 222.633 340.179 215.719C339.782 207.095 340.083 198.448 341.02 189.981C341.22 188.165 341.592 186.305 342.022 184.462C342.735 181.5 343.673 178.546 344.575 175.649ZM338.759 227.76C338.383 225.626 338.079 223.493 337.83 221.35C337.583 219.114 337.37 216.875 337.254 214.626C337.033 210.105 337.167 205.551 337.507 201.05C337.736 198.009 338.04 194.973 338.456 192C338.853 189.164 339.43 186.397 340.128 183.668C340.851 180.901 341.686 178.198 342.632 175.465C342.885 174.812 343.156 174.175 343.47 173.542C343.754 172.976 344.053 172.43 344.395 171.881C344.382 171.903 344.39 171.91 344.397 171.916C344.326 172.007 344.258 172.108 344.201 172.212C342.882 174.684 342.389 177.623 341.563 180.393C340.629 183.543 339.866 186.708 339.488 189.807C338.424 198.351 338.121 207.062 338.3 215.777C338.383 219.773 338.505 223.769 338.759 227.76ZM396.638 258.878C396.45 258.934 396.273 259.001 396.111 259.08C396.174 259.008 396.24 258.939 396.318 258.887L396.359 258.855C396.445 258.87 396.545 258.863 396.638 258.878ZM252.252 125.699C252.283 125.725 252.322 125.733 252.325 125.761C252.344 125.778 252.322 125.825 252.313 125.844C252.254 125.92 252.227 125.836 252.252 125.699ZM286.419 105.587C288.039 105.645 289.731 106.457 291.05 107.631C290.427 107.244 289.754 106.915 289.041 106.671L288.817 108.998C287.154 108.398 285.058 108.607 283.781 110.03C283.038 110.851 283.491 112.427 283.828 113.337C283.959 113.67 284.118 113.993 284.331 114.27C284.475 114.488 284.649 114.672 284.813 114.874C285.397 115.445 286.128 115.884 286.924 116.14L286.861 116.213C286.835 116.25 286.789 116.304 286.76 116.345L286.662 116.473C286.002 116.029 285.375 115.486 284.813 114.874C284.632 114.691 284.471 114.485 284.331 114.27C283.065 112.65 282.316 110.693 282.652 109.021C282.983 107.345 285 106.289 286.374 105.608C286.394 105.593 286.411 105.581 286.419 105.587ZM291.05 107.631C292.705 108.656 293.971 110.183 294.358 112.267C294.766 114.363 292.255 117.452 290.01 117.532C289.839 117.538 289.654 117.537 289.485 117.517C289.536 117.435 289.587 117.353 289.638 117.271C289.842 116.981 289.921 116.644 289.889 116.311C290.278 116.208 290.639 116.082 290.99 115.892C294.901 113.761 293.72 109.966 291.05 107.631ZM288.817 108.998C290.767 109.72 292.121 111.576 290.782 113.963C289.049 117.074 285.768 112.747 286.445 110.372C286.61 109.797 287.653 110.359 288.24 110.488C288.357 110.529 288.493 110.587 288.654 110.633L288.817 108.998ZM288.654 110.633C290.045 111.178 292.248 112.837 289.958 113.816C289.498 114.01 288.785 114.172 288.305 114.282L288.654 110.633Z" fill="#9E624C"/>
</g>
</g>
<defs>
<clipPath id="clip0_1_1400">
<rect width="482.971" height="482.971" fill="white" transform="matrix(-0.756388 -0.654124 -0.654124 0.756388 681.353 316.316)"/>
</clipPath>
</defs>
</svg>
